<mxfile host="app.diagrams.net" agent="Mozilla/5.0 (X11; Linux x86_64) AppleWebKit/537.36 (KHTML, like Gecko) Chrome/140.0.0.0 Safari/537.36" version="24.7.10">
  <diagram name="Page-1" id="5MIjGKylOODfiqh9XJRI">
    <mxGraphModel dx="810" dy="409" grid="1" gridSize="10" guides="1" tooltips="1" connect="1" arrows="1" fold="1" page="1" pageScale="1" pageWidth="1169" pageHeight="1654" math="0" shadow="0">
      <root>
        <mxCell id="0" />
        <mxCell id="1" parent="0" />
        <mxCell id="LMgEg_oxYY90Uw3xWCpH-1" value="" style="ellipse;whiteSpace=wrap;html=1;fillColor=none;fillStyle=hatch;" vertex="1" parent="1">
          <mxGeometry x="80" y="80" width="120" height="120" as="geometry" />
        </mxCell>
        <mxCell id="LMgEg_oxYY90Uw3xWCpH-2" value="" style="ellipse;whiteSpace=wrap;html=1;fillColor=none;fillStyle=hatch;" vertex="1" parent="1">
          <mxGeometry x="160" y="80" width="120" height="120" as="geometry" />
        </mxCell>
        <mxCell id="LMgEg_oxYY90Uw3xWCpH-3" value="A" style="text;html=1;align=center;verticalAlign=middle;resizable=0;points=[];autosize=1;strokeColor=none;fillColor=none;fontSize=14;" vertex="1" parent="1">
          <mxGeometry x="80" y="200" width="30" height="30" as="geometry" />
        </mxCell>
        <mxCell id="LMgEg_oxYY90Uw3xWCpH-4" value="B" style="text;html=1;align=center;verticalAlign=middle;resizable=0;points=[];autosize=1;strokeColor=none;fillColor=none;fontSize=14;" vertex="1" parent="1">
          <mxGeometry x="250" y="200" width="30" height="30" as="geometry" />
        </mxCell>
        <mxCell id="LMgEg_oxYY90Uw3xWCpH-8" value="" style="whiteSpace=wrap;html=1;shape=mxgraph.basic.pointed_oval;movable=1;resizable=1;rotatable=1;deletable=1;editable=1;locked=0;connectable=1;strokeColor=none;fillStyle=hatch;fillColor=#FF0000;" vertex="1" parent="1">
          <mxGeometry x="160" y="100" width="40" height="80" as="geometry" />
        </mxCell>
      </root>
    </mxGraphModel>
  </diagram>
</mxfile>
